:SAMPLES-PER-SECOND 30
:FRAME-RANGE 1-1086
:FULLY-SPECIFIED
:DEGREES
510
root  0.587914 37.3163 105.062 -152.83 78.3593 -150.672
RightUpLeg  -15.2909 -1.51634 1.69955
RightLeg  23.8454 3.0364 1.23469
RightFoot  -8.45173 -0.259419 7.99093
RightToes  1.21801e-010 1.2921e-014 -6.02303e-014
Spine  -6.89883 0.893681 14.3783
Spine1  10.4819 1.65485 -3.19929
HEad  -5.50902 40.7568 -20.9474
LeftShoulder1  -0.362041 4.56871 -22.4764
LeftArm  -11.1929 22.184 -42.1854
LeftForeArm  15.325 -68.3726 -28.6815
LeftHand  0.0866934 2.68688 -4.72733
RightShoulder  1.50194 2.63033 18.8386
RightArm  13.767 12.1595 50.7769
RightForeArm  7.2511 55.518 15.9412
RightHand  0.00931955 -9.74616 -1.5975
LeftUpLeg  -14.305 -3.26086 3.35806
LeftLeg  69.2963 0.364611 1.89995
LeftFoot  6.13248 0.815449 -5.54707
LeftToes  3.79492e-011 -8.60219e-011 1.56273e-011
511
root  1.72747 37.5261 105.095 -157.671 77.5249 -155.685
RightUpLeg  -13.031 -3.46106 1.36802
RightLeg  23.2601 3.58736 1.47344
RightFoot  -9.72643 -0.162268 6.81178
RightToes  1.21801e-010 1.2921e-014 -6.02303e-014
Spine  -6.30118 1.52926 15.0701
Spine1  9.98286 2.52444 -4.11556
HEad  -5.76667 40.9422 -21.6295
LeftShoulder1  -0.375528 4.60412 -22.748
LeftArm  -11.3333 20.8556 -41.687
LeftForeArm  14.3207 -68.031 -28.2267
LeftHand  0.0803172 2.86294 -4.55499
RightShoulder  1.57392 3.12854 17.9422
RightArm  14.7149 14.9048 52.6811
RightForeArm  5.3331 52.7374 14.4393
RightHand  0.0118333 -9.37395 -1.75611
LeftUpLeg  -18.5863 -2.97804 2.12502
LeftLeg  68.806 0.445598 2.08065
LeftFoot  3.21249 0.521213 -4.23414
LeftToes  3.79492e-011 -8.60219e-011 1.56273e-011
512
root  2.827 37.7072 105.079 -160.608 77.0209 -158.802
RightUpLeg  -10.7456 -5.31893 0.99205
RightLeg  22.3025 4.48561 1.95936
RightFoot  -10.6512 -0.105577 5.51057
RightToes  1.21801e-010 1.2921e-014 -6.02303e-014
Spine  -5.51323 2.36184 16.3201
Spine1  9.33029 3.67843 -5.50432
HEad  -5.81691 41.4494 -22.292
LeftShoulder1  -0.406236 4.71241 -22.704
LeftArm  -12.0392 19.4212 -41.7486
LeftForeArm  13.1168 -67.3577 -27.2662
LeftHand  0.0785305 2.86336 -4.47112
RightShoulder  1.65537 3.64023 17.2713
RightArm  15.7523 17.7807 54.3211
RightForeArm  3.65247 50.3886 13.3378
RightHand  0.0250071 -9.28829 -2.15413
LeftUpLeg  -22.1089 -1.79016 1.14765
LeftLeg  65.7383 0.81277 2.6782
LeftFoot  1.17915 0.435059 -4.03115
LeftToes  3.79492e-011 -8.60219e-011 1.56273e-011
513
root  3.9274 37.8418 105.052 -163.77 76.4174 -162.199
RightUpLeg  -8.58491 -7.62782 0.273371
RightLeg  21.6093 5.73684 2.76889
RightFoot  -11.7051 -0.0661071 4.19554
RightToes  1.21801e-010 1.2921e-014 -6.02303e-014
Spine  -4.99403 3.18471 17.1995
Spine1  8.90146 4.7329 -6.83768
HEad  -6.16017 42.1957 -23.0967
LeftShoulder1  -0.438247 4.82064 -22.7579
LeftArm  -12.3549 17.6584 -41.6071
LeftForeArm  11.3347 -66.6637 -26.4238
LeftHand  0.0622235 2.98499 -3.92674
RightShoulder  1.77602 4.34702 16.6069
RightArm  16.2237 20.3899 55.9145
RightForeArm  2.85407 48.233 12.3774
RightHand  0.0215281 -9.1918 -2.09084
LeftUpLeg  -24.9293 -0.252428 0.0689945
LeftLeg  60.8727 2.27565 5.00584
LeftFoot  -1.74555 0.256015 -2.92541
LeftToes  3.79492e-011 -8.60219e-011 1.56273e-011
514
root  5.01871 37.9488 105.021 -165.733 75.4018 -164.414
RightUpLeg  -6.29064 -8.18304 0.0288819
RightLeg  20.4978 5.06199 2.75767
RightFoot  -12.6241 -0.047546 3.39838
RightToes  1.21801e-010 1.2921e-014 -6.02303e-014
Spine  -4.66062 3.91722 17.9874
Spine1  8.56249 5.60443 -7.91689
HEad  -6.52171 43.7824 -23.5511
LeftShoulder1  -0.434889 4.81304 -22.6769
LeftArm  -12.8654 15.9309 -41.5425
LeftForeArm  10.2196 -66.1213 -25.7688
LeftHand  0.0502499 3.2085 -3.75591
RightShoulder  1.86492 4.83589 16.2875
RightArm  16.935 23.2489 57.5152
RightForeArm  1.3969 45.7395 11.4125
RightHand  0.027228 -8.92157 -2.37807
LeftUpLeg  -27.1246 1.35455 -0.583799
LeftLeg  54.4561 4.34745 6.99493
LeftFoot  -3.53349 0.180765 -2.33775
LeftToes  3.79492e-011 -8.60219e-011 1.56273e-011
515
root  6.12991 37.9914 104.953 -168.496 73.9051 -167.467
RightUpLeg  -4.07197 -8.94897 -0.415865
RightLeg  19.7199 4.13035 2.56239
RightFoot  -13.9683 -0.0272315 2.9401
RightToes  1.21801e-010 1.2921e-014 -6.02303e-014
Spine  -4.66157 4.50768 18.0971
Spine1  8.40098 6.23843 -8.72429
HEad  -6.26479 45.2533 -23.3205
LeftShoulder1  -0.465054 4.91144 -22.7942
LeftArm  -13.0719 13.8387 -41.2837
LeftForeArm  8.79316 -65.4627 -25.0294
LeftHand  0.0360391 3.43077 -3.40189
RightShoulder  1.97342 5.34573 16.1924
RightArm  17.1236 25.7739 58.8189
RightForeArm  0.457436 43.3652 10.5516
RightHand  0.0230616 -8.62781 -2.39082
LeftUpLeg  -28.4612 2.49503 -1.47325
LeftLeg  46.5287 6.22122 7.38923
LeftFoot  -3.84312 0.12398 -1.53933
LeftToes  3.79492e-011 -8.60219e-011 1.56273e-011
516
root  7.25616 38.0046 104.861 -169.589 72.5106 -168.942
RightUpLeg  -1.92952 -8.8185 -0.247985
RightLeg  18.7058 2.61394 1.95497
RightFoot  -15.1832 -0.00203692 3.00579
RightToes  1.21801e-010 1.2921e-014 -6.02303e-014
Spine  -4.96689 5.3734 18.4026
Spine1  8.49806 7.1103 -9.47585
HEad  -5.66593 46.4545 -22.7555
LeftShoulder1  -0.459302 4.89176 -22.7906
LeftArm  -13.2827 11.7978 -41.2336
LeftForeArm  7.61258 -64.8879 -24.4131
LeftHand  0.0226698 3.64865 -3.00018
RightShoulder  2.01091 5.64531 15.8198
RightArm  16.9602 27.8514 60.2697
RightForeArm  -0.417452 41.1689 9.82126
RightHand  0.0318824 -8.40839 -2.83593
LeftUpLeg  -28.9911 3.87665 -2.06955
LeftLeg  37.0869 7.85728 6.68729
LeftFoot  -3.43463 0.0695526 -0.751148
LeftToes  3.79492e-011 -8.60219e-011 1.56273e-011
517
root  8.40274 37.9761 104.7 -171.538 70.7724 -171.177
RightUpLeg  0.522266 -9.00072 -0.433944
RightLeg  17.6208 1.09153 1.38972
RightFoot  -16.595 0.0357958 3.23
RightToes  1.21801e-010 1.2921e-014 -6.02303e-014
Spine  -5.37172 5.99738 18.3595
Spine1  8.72173 7.85367 -10.4375
HEad  -4.67959 47.1369 -21.5725
LeftShoulder1  -0.395727 4.69475 -22.2928
LeftArm  -13.9968 10.3831 -41.5394
LeftForeArm  7.25645 -64.5504 -24.0251
LeftHand  0.014933 3.85628 -2.90678
RightShoulder  2.07217 5.87765 15.9318
RightArm  17.0151 29.8785 61.3576
RightForeArm  -0.801791 39.1285 9.16519
RightHand  0.0092213 -7.95787 -2.24543
LeftUpLeg  -28.3532 4.24139 -2.93818
LeftLeg  26.2983 10.0109 5.66843
LeftFoot  -2.12388 0.0665582 -0.765491
LeftToes  3.79492e-011 -8.60219e-011 1.56273e-011
518
root  9.57162 37.8684 104.474 -173.005 68.604 -172.813
RightUpLeg  3.08254 -9.40484 -0.49877
RightLeg  16.771 -0.66019 0.903042
RightFoot  -18.108 0.0921852 3.63364
RightToes  1.21801e-010 1.2921e-014 -6.02303e-014
Spine  -5.66018 6.33675 17.9769
Spine1  8.81882 8.17142 -10.6298
HEad  -4.00514 47.198 -20.7865
LeftShoulder1  -0.416305 4.77251 -22.1804
LeftArm  -14.0814 8.78632 -41.0156
LeftForeArm  6.1439 -64.2954 -23.8416
LeftHand  0.0101221 3.99682 -2.86465
RightShoulder  2.13319 6.35041 15.4199
RightArm  17.0754 31.6548 62.5878
RightForeArm  -1.57258 37.3563 8.65534
RightHand  0.0103393 -7.74667 -2.43613
LeftUpLeg  -26.9683 3.13086 -3.2428
LeftLeg  15.2206 12.4881 4.04304
LeftFoot  -1.22327 0.066728 -0.81804
LeftToes  3.79492e-011 -8.60219e-011 1.56273e-011
519
root  10.7727 37.6977 104.187 -173.25 66.567 -173.094
RightUpLeg  5.76053 -9.44061 -0.0462332
RightLeg  15.9004 -2.62375 0.452886
RightFoot  -19.4953 0.156552 4.04867
RightToes  1.21801e-010 1.2921e-014 -6.02303e-014
Spine  -6.0098 6.73101 18.1601
Spine1  9.05478 8.63406 -11.124
HEad  -3.78415 46.7612 -20.2054
LeftShoulder1  -0.391985 4.71394 -21.6011
LeftArm  -14.5205 7.49899 -40.8938
LeftForeArm  5.7147 -64.2356 -23.8192
LeftHand  0.000353175 4.25925 -2.60729
RightShoulder  2.17555 6.63507 15.1968
RightArm  17.6792 33.6179 63.8421
RightForeArm  -2.3915 35.5701 8.17088
RightHand  -0.0023289 -7.36969 -2.07283
LeftUpLeg  -25.5872 -1.05497 -1.68419
LeftLeg  5.73189 18.3077 2.42896
LeftFoot  -2.42019 0.0936633 -1.26156
LeftToes  3.79492e-011 -8.60219e-011 1.56273e-011
520
root  12.0165 37.4816 103.834 -172.995 64.7486 -172.827
RightUpLeg  8.27063 -9.12925 0.798634
RightLeg  15.4383 -4.59163 -0.13576
RightFoot  -20.6897 0.271788 5.03744
RightToes  1.21801e-010 1.2921e-014 -6.02303e-014
Spine  -6.42879 7.24455 18.3885
Spine1  9.34279 9.18179 -11.4359
HEad  -3.67793 45.888 -19.7001
LeftShoulder1  -0.32524 4.49566 -21.0629
LeftArm  -15.1468 6.36486 -40.6783
LeftForeArm  5.20574 -64.2307 -23.8736
LeftHand  -0.00886853 4.42313 -2.05754
RightShoulder  2.21798 6.9189 14.9886
RightArm  18.3885 35.5585 64.9883
RightForeArm  -3.14357 33.9194 7.74436
RightHand  -0.00442176 -7.19148 -2.08331
LeftUpLeg  -24.855 -2.43395 -1.46035
LeftLeg  -1.17665 21.4559 1.91437
LeftFoot  -4.02311 0.0254212 -0.18672
LeftToes  3.79492e-011 -8.60219e-011 1.56273e-011
521
root  13.3088 37.208 103.424 -172.82 63.3418 -172.742
RightUpLeg  10.0831 -10.3806 1.07168
RightLeg  16.4812 -4.30366 -0.603242
RightFoot  -21.9547 0.407664 5.98821
RightToes  1.21801e-010 1.2921e-014 -6.02303e-014
Spine  -6.38203 7.7469 18.6515
Spine1  9.08815 9.87569 -12.3199
HEad  -4.38818 45.0035 -19.6577
LeftShoulder1  -0.335903 4.56973 -20.2575
LeftArm  -16.0017 5.39383 -40.5884
LeftForeArm  4.71929 -64.357 -24.0883
LeftHand  -0.0144304 4.62798 -1.96416
RightShoulder  2.26314 7.15689 14.9235
RightArm  19.3011 37.3795 66.678
RightForeArm  -3.89219 32.2136 7.32153
RightHand  -0.00372872 -7.1034 -2.1972
LeftUpLeg  -24.8447 -3.00783 -1.37423
LeftLeg  -4.34334 25.1344 1.57177
LeftFoot  -5.50531 0.0916517 -1.14863
LeftToes  3.79492e-011 -8.60219e-011 1.56273e-011
522
root  14.6252 36.9229 102.958 -172.838 62.048 -172.888
RightUpLeg  11.2932 -12.044 0.99152
RightLeg  18.9267 -2.74057 -1.11768
RightFoot  -22.917 0.649986 7.93759
RightToes  1.21801e-010 1.2921e-014 -6.02303e-014
Spine  -6.37151 8.28131 18.6202
Spine1  9.26066 10.6391 -13.0479
HEad  -6.38711 43.641 -20.5157
LeftShoulder1  -0.324552 4.55454 -19.6315
LeftArm  -17.0677 4.23083 -40.2381
LeftForeArm  4.24136 -64.4158 -24.2188
LeftHand  -0.0184419 4.77251 -1.77343
RightShoulder  2.2889 7.46362 14.5117
RightArm  19.8768 39.1509 68.2896
RightForeArm  -4.26607 30.8359 6.9809
RightHand  -0.00962542 -6.77076 -2.09761
LeftUpLeg  -25.8481 -2.26366 -1.38462
LeftLeg  -1.78005 26.4506 1.87086
LeftFoot  -6.01681 0.0480647 -0.255229
LeftToes  3.79492e-011 -8.60219e-011 1.56273e-011
523
root  15.919 36.7611 102.475 -174.317 60.8528 -174.54
RightUpLeg  11.6959 -10.6695 0.888932
RightLeg  22.8336 -3.37012 -1.77415
RightFoot  -22.8192 0.95386 11.0063
RightToes  1.21801e-010 1.2921e-014 -6.02303e-014
Spine  -6.13394 8.64312 17.2955
Spine1  9.87612 11.3851 -13.6775
HEad  -9.24571 42.269 -21.6637
LeftShoulder1  -0.31937 4.54954 -19.2973
LeftArm  -18.2015 3.61708 -39.5934
LeftForeArm  4.60987 -65.0696 -25.0234
LeftHand  -0.0230232 4.98239 -1.64908
RightShoulder  2.35032 7.9392 14.1275
RightArm  19.9895 40.6521 69.9454
RightForeArm  -4.24909 29.6944 6.69002
RightHand  -0.0113808 -6.79654 -1.94047
LeftUpLeg  -27.1356 -1.90843 -2.36137
LeftLeg  3.558 27.2326 3.53002
LeftFoot  -1.91058 -0.400095 4.98746
LeftToes  3.79492e-011 -8.60219e-011 1.56273e-011
524
root  17.2074 36.6402 101.95 -177.273 59.4667 -177.906
RightUpLeg  10.3243 -10.0133 -0.880301
RightLeg  30.2816 -1.76717 -1.34948
RightFoot  -21.4431 1.14468 14.5344
RightToes  1.21801e-010 1.2921e-014 -6.02303e-014
Spine  -5.78207 8.94498 14.5626
Spine1  10.4683 12.0123 -14.2442
HEad  -12.2683 40.8193 -22.6094
LeftShoulder1  -0.2897 4.43756 -19.2075
LeftArm  -19.0712 2.98102 -38.3916
LeftForeArm  4.64218 -65.5492 -25.6763
LeftHand  -0.0259504 5.05248 -1.27429
RightShoulder  2.40857 8.25519 14.0558
RightArm  20.0719 41.859 71.6337
RightForeArm  -4.12144 28.5437 6.39878
RightHand  -0.0190061 -6.62787 -1.55933
LeftUpLeg  -28.0367 -2.70188 -3.91665
LeftLeg  8.08239 25.6172 5.2508
LeftFoot  4.2093 -0.914712 6.50408
LeftToes  3.79492e-011 -8.60219e-011 1.56273e-011
